<svg preserveAspectRatio="none" overflow="visible" style="display: block;" width="16" height="16" viewBox="0 0 16 16" fill="none" xmlns="http://www.w3.org/2000/svg">
<g id="SVG">
<path id="Vector" d="M8 1.6C5.35081 1.6 3.2 3.75081 3.2 6.4V9.2688L2.6344 9.8344C2.40567 10.0632 2.33726 10.4072 2.46106 10.7061C2.58485 11.005 2.87648 11.1999 3.2 11.2H12.8C13.1235 11.1999 13.4151 11.005 13.5389 10.7061C13.6627 10.4072 13.5943 10.0632 13.3656 9.8344L12.8 9.2688V6.4C12.8 3.75081 10.6492 1.6 8 1.6V1.6M8 14.4C6.6754 14.4 5.6 13.3246 5.6 12H10.4C10.4 13.3246 9.3246 14.4 8 14.4V14.4" fill="#F97316"/>
</g>
</svg>
